<?xml version="1.0" encoding="UTF-8" standalone="no"?>
<svg width="871px" height="259px" viewBox="0 0 871 259" version="1.1" xmlns="http://www.w3.org/2000/svg" xmlns:xlink="http://www.w3.org/1999/xlink" xmlns:sketch="http://www.bohemiancoding.com/sketch/ns">
    <!-- Generator: Sketch 3.5.2 (25235) - http://www.bohemiancoding.com/sketch -->
    <title>Slice 1</title>
    <desc>Created with Sketch.</desc>
    <defs></defs>
    <g id="Page-1" stroke="none" stroke-width="1" fill="none" fill-rule="evenodd" sketch:type="MSPage">
        <g id="Group" sketch:type="MSLayerGroup">
            <rect id="Rectangle-3" fill="#30BA75" sketch:type="MSShapeGroup" x="0" y="0" width="259" height="259" rx="47"></rect>
            <path d="M259,96.779144 L259,212.003225 C259,237.958827 237.955876,259 212.003225,259 L62.0973265,259 L18.0214844,188.625488 L227.26416,46.6022949 L259,96.779144 Z" id="Rectangle-3" opacity="0.189999998" fill="#000000" sketch:type="MSShapeGroup"></path>
            <rect id="Rectangle-1" fill="#BABABA" sketch:type="MSShapeGroup" transform="translate(97.838166, 156.907095) rotate(-32.000000) translate(-97.838166, -156.907095) " x="13.3270067" y="133.907095" width="169.022319" height="46" rx="8"></rect>
            <rect id="Rectangle-1" fill="#D8D8D8" sketch:type="MSShapeGroup" transform="translate(157.303481, 92.942902) rotate(-32.000000) translate(-157.303481, -92.942902) " x="73.4458103" y="69.9429016" width="167.715342" height="46" rx="8"></rect>
        </g>
        <path d="M430.942,148.152 L403.594,148.152 C398.20464,148.152 395.51,146.145353 395.51,142.132 C395.51,137.774645 398.20464,135.596 403.594,135.596 L434.726,135.596 C438.395352,135.596 440.94666,136.455991 442.38,138.176 C443.813341,139.896009 444.53,143.163976 444.53,147.98 C444.53,154.745367 443.670009,161.309968 441.95,167.674 C440.229991,174.038032 437.449353,179.685309 433.608,184.616 C429.766647,189.546691 424.778697,193.531318 418.644,196.57 C412.509303,199.608682 405.027377,201.128 396.198,201.128 C387.597957,201.128 379.858034,199.494016 372.978,196.226 C366.097966,192.957984 360.192691,188.543361 355.262,182.982 C350.331309,177.420639 346.547347,170.913371 343.91,163.46 C341.272653,156.006629 339.954,148.037376 339.954,139.552 C339.954,131.295959 341.243987,123.355371 343.824,115.73 C346.404013,108.104629 350.101976,101.396696 354.918,95.606 C359.734024,89.8153044 365.553299,85.1713508 372.376,81.674 C379.198701,78.1766492 386.852624,76.428 395.338,76.428 C400.268691,76.428 405.02731,76.9153285 409.614,77.89 C414.20069,78.8646715 418.78731,80.6706535 423.374,83.308 C425.896679,84.7986741 428.161323,86.3466586 430.168,87.952 C432.174677,89.5573414 433.80866,91.1053259 435.07,92.596 C436.33134,94.0866741 437.133998,95.5199931 437.478,96.896 C437.822002,98.2720069 437.650003,99.4759948 436.962,100.508 C436.503331,101.310671 435.872671,102.084663 435.07,102.83 C434.267329,103.575337 433.321339,104.062666 432.232,104.292 C431.142661,104.521334 429.96734,104.492668 428.706,104.206 C427.44466,103.919332 426.18334,103.14534 424.922,101.884 C422.169986,99.2466535 419.561346,97.0680086 417.096,95.348 C414.630654,93.6279914 412.194012,92.2520052 409.786,91.22 C407.377988,90.1879948 404.941346,89.4713353 402.476,89.07 C400.010654,88.6686647 397.402014,88.468 394.65,88.468 C388.916638,88.468 383.556025,89.8726526 378.568,92.682 C373.579975,95.4913474 369.251352,99.2179768 365.582,103.862 C361.912648,108.506023 359.017344,113.83797 356.896,119.858 C354.774656,125.87803 353.714,132.155967 353.714,138.692 C353.714,145.457367 354.774656,151.878636 356.896,157.956 C359.017344,164.033364 361.969981,169.336644 365.754,173.866 C369.538019,178.395356 374.038641,182.00732 379.256,184.702 C384.473359,187.39668 390.177969,188.744 396.37,188.744 C402.676698,188.744 408.008645,187.626011 412.366,185.39 C416.723355,183.153989 420.277986,180.144019 423.03,176.36 C425.782014,172.575981 427.78866,168.247358 429.05,163.374 C430.31134,158.500642 430.942,153.426693 430.942,148.152 L430.942,148.152 Z M521.07,148.324 C521.07,144.654648 520.75467,140.956685 520.124,137.23 C519.49333,133.503315 518.318009,130.120682 516.598,127.082 C514.877991,124.043318 512.498682,121.578009 509.46,119.686 C506.421318,117.793991 502.551357,116.848 497.85,116.848 C492.804641,116.848 488.648016,117.937322 485.38,120.116 C482.111984,122.294678 479.503343,124.960651 477.554,128.114 C475.604657,131.267349 474.228671,134.678648 473.426,138.348 C472.623329,142.017352 472.222,145.342652 472.222,148.324 L521.07,148.324 Z M498.366,201.128 C491.7153,201.128 485.924691,199.866679 480.994,197.344 C476.063309,194.821321 471.964016,191.410021 468.696,187.11 C465.427984,182.809978 462.991341,177.793362 461.386,172.06 C459.780659,166.326638 458.978,160.249365 458.978,153.828 C458.978,147.406635 459.809325,141.272029 461.472,135.424 C463.134675,129.575971 465.599984,124.416022 468.868,119.944 C472.136016,115.471978 476.235309,111.917347 481.166,109.28 C486.096691,106.642653 491.829967,105.324 498.366,105.324 C504.558031,105.324 509.889978,106.470655 514.362,108.764 C518.834022,111.057345 522.474653,114.095981 525.284,117.88 C528.093347,121.664019 530.185993,126.049975 531.562,131.038 C532.938007,136.026025 533.626,141.271972 533.626,146.776 C533.626,151.018688 533.081339,154.028658 531.992,155.806 C530.902661,157.583342 528.867348,158.472 525.886,158.472 L472.222,158.472 C472.107333,162.141352 472.623328,165.810648 473.77,169.48 C474.916672,173.149352 476.607989,176.474652 478.844,179.456 C481.080011,182.437348 483.86065,184.873991 487.186,186.766 C490.51135,188.658009 494.352645,189.604 498.71,189.604 C504.328695,189.604 509.058647,188.830008 512.9,187.282 C516.741353,185.733992 520.095319,183.29735 522.962,179.972 C524.108672,178.71066 525.197995,177.936668 526.23,177.65 C527.262005,177.363332 528.179329,177.334666 528.982,177.564 C529.784671,177.793334 530.443997,178.22333 530.96,178.854 C531.476003,179.48467 531.848666,180.086664 532.078,180.66 C532.880671,182.036007 532.737339,183.870655 531.648,186.164 C530.558661,188.457345 528.552015,190.721989 525.628,192.958 C522.703985,195.194011 518.94869,197.114659 514.362,198.72 C509.77531,200.325341 504.443364,201.128 498.366,201.128 L498.366,201.128 Z M588.322,118.74 C584.881983,118.969334 581.671348,119.857992 578.69,121.406 C575.708652,122.954008 573.100011,125.132653 570.864,127.942 C568.627989,130.751347 566.850673,134.219979 565.532,138.348 C564.213327,142.476021 563.554,147.177307 563.554,152.452 L563.554,193.216 C563.554,197.344021 561.375355,199.408 557.018,199.408 C552.660645,199.408 550.482,197.344021 550.482,193.216 L550.482,113.064 C550.482,110.99999 551.083994,109.452005 552.288,108.42 C553.492006,107.387995 555.12599,106.872 557.19,106.872 C559.139343,106.872 560.687328,107.330662 561.834,108.248 C562.980672,109.165338 563.554,110.770655 563.554,113.064 L563.554,126.824 C564.930007,124.186653 566.477991,121.635346 568.198,119.17 C569.918009,116.704654 571.867322,114.497343 574.046,112.548 C576.224678,110.598657 578.632653,109.050672 581.27,107.904 C583.907347,106.757328 586.831317,106.184 590.042,106.184 C592.679347,106.184 594.485328,106.757328 595.46,107.904 C596.434672,109.050672 596.922,110.426659 596.922,112.032 C596.922,114.784014 596.033342,116.532663 594.256,117.278 C592.478658,118.023337 590.500678,118.510666 588.322,118.74 L588.322,118.74 Z M629.774,193.216 C629.774,197.114686 627.538022,199.178666 623.066,199.408 C618.708645,199.408 616.53,197.344021 616.53,193.216 L616.53,77.46 C616.53,74.8226535 616.988662,72.9880052 617.906,71.956 C618.823338,70.9239948 620.543321,70.408 623.066,70.408 C625.588679,70.408 627.337328,70.9813276 628.312,72.128 C629.286672,73.2746724 629.774,75.2239862 629.774,77.976 L629.774,150.216 L671.57,109.28 C673.175341,107.789326 674.895324,107.072666 676.73,107.13 C678.564676,107.187334 680.083994,107.760661 681.288,108.85 C682.492006,109.939339 683.094,111.401324 683.094,113.236 C683.094,115.070676 682.06201,117.01999 679.998,119.084 L644.91,152.624 L681.202,186.68 C683.495345,188.858678 684.699333,190.922657 684.814,192.872 C684.928667,194.821343 684.384006,196.369328 683.18,197.516 C681.975994,198.662672 680.428009,199.264666 678.536,199.322 C676.643991,199.379334 674.895341,198.605341 673.29,197 L629.774,155.72 L629.774,193.216 Z M738.306,105.152 C745.644703,105.152 751.951307,106.470653 757.226,109.108 C762.500693,111.745347 766.857983,115.299978 770.298,119.772 C773.738017,124.244022 776.260659,129.403971 777.866,135.252 C779.471341,141.100029 780.274,147.291967 780.274,153.828 C780.274,160.364033 779.442675,166.527304 777.78,172.318 C776.117325,178.108696 773.566017,183.182645 770.126,187.54 C766.685983,191.897355 762.328693,195.337321 757.054,197.86 C751.779307,200.382679 745.530036,201.644 738.306,201.644 C731.081964,201.644 724.832693,200.354013 719.558,197.774 C714.283307,195.193987 709.954684,191.696689 706.572,187.282 C703.189316,182.867311 700.695341,177.764696 699.09,171.974 C697.484659,166.183304 696.682,160.020033 696.682,153.484 C696.682,146.947967 697.455992,140.756029 699.004,134.908 C700.552008,129.059971 703.017316,123.928689 706.4,119.514 C709.782684,115.099311 714.082641,111.602013 719.3,109.022 C724.517359,106.441987 730.852629,105.152 738.306,105.152 L738.306,105.152 Z M738.306,190.12 C742.89269,190.12 746.963316,189.260009 750.518,187.54 C754.072684,185.819991 757.053988,183.383349 759.462,180.23 C761.870012,177.076651 763.70466,173.264022 764.966,168.792 C766.22734,164.319978 766.858,159.38936 766.858,154 C766.858,148.495972 766.284672,143.479356 765.138,138.95 C763.991328,134.420644 762.214012,130.522016 759.806,127.254 C757.397988,123.985984 754.388018,121.463342 750.776,119.686 C747.163982,117.908658 742.892691,117.02 737.962,117.02 C733.031309,117.02 728.788684,117.937324 725.234,119.772 C721.679316,121.606676 718.784011,124.157984 716.548,127.426 C714.311989,130.694016 712.678005,134.563978 711.646,139.036 C710.613995,143.508022 710.098,148.381307 710.098,153.656 C710.098,159.04536 710.699994,163.975978 711.904,168.448 C713.108006,172.920022 714.885322,176.761317 717.236,179.972 C719.586678,183.182683 722.510649,185.676658 726.008,187.454 C729.505351,189.231342 733.604643,190.12 738.306,190.12 L738.306,190.12 Z M857.502,142.476 C857.502,133.187954 855.724684,126.652019 852.17,122.868 C848.615316,119.083981 843.398034,117.192 836.518,117.192 C833.536652,117.192 830.555348,117.621996 827.574,118.482 C824.592652,119.342004 821.898012,120.746657 819.49,122.696 C817.081988,124.645343 815.104008,127.167985 813.556,130.264 C812.007992,133.360015 811.234,137.143978 811.234,141.616 L811.234,193.216 C811.234,197.344021 809.055355,199.408 804.698,199.408 C802.748657,199.408 801.172006,198.834672 799.968,197.688 C798.763994,196.541328 798.162,195.050676 798.162,193.216 L798.162,113.064 C798.162,110.99999 798.763994,109.452005 799.968,108.42 C801.172006,107.387995 802.80599,106.872 804.87,106.872 C809.112688,106.872 811.234,108.935979 811.234,113.064 L811.234,122.696 C812.266005,120.63199 813.670658,118.56801 815.448,116.504 C817.225342,114.43999 819.317988,112.576675 821.726,110.914 C824.134012,109.251325 826.828652,107.904005 829.81,106.872 C832.791348,105.839995 836.001983,105.324 839.442,105.324 C843.914022,105.324 848.041981,105.95466 851.826,107.216 C855.610019,108.47734 858.877986,110.397987 861.63,112.978 C864.382014,115.558013 866.560659,118.854647 868.166,122.868 C869.771341,126.881353 870.574,131.639972 870.574,137.144 L870.574,193.216 C870.574,197.344021 868.395355,199.408 864.038,199.408 C859.680645,199.408 857.502,197.344021 857.502,193.216 L857.502,142.476 Z" id="Gerkon" fill="#222222" sketch:type="MSShapeGroup"></path>
    </g>
</svg>